<svg width="19" height="22" viewBox="0 0 19 22" fill="none" xmlns="http://www.w3.org/2000/svg">
<path id="Location" fill-rule="evenodd" clip-rule="evenodd" d="M0.429321 9.45437C0.429321 4.62451 4.49931 0.720722 9.42238 0.720722C14.3593 0.720722 18.4293 4.62451 18.4293 9.45437C18.4293 11.8882 17.5367 14.1477 16.0676 16.0629C14.4469 18.1754 12.4493 20.016 10.2007 21.4608C9.6861 21.7947 9.22166 21.8199 8.65686 21.4608C6.39551 20.016 4.39788 18.1754 2.79103 16.0629C1.32083 14.1477 0.429321 11.8882 0.429321 9.45437ZM5.6066 9.92947C5.6066 11.9968 7.27816 13.6228 9.32773 13.6228C11.3786 13.6228 13.0663 11.9968 13.0663 9.92947C13.0663 7.8782 11.3786 6.17306 9.32773 6.17306C7.27816 6.17306 5.6066 7.8782 5.6066 9.92947Z" fill="#6E6B56"/>
</svg>
